<mxfile host="app.diagrams.net" modified="2024-05-28T11:34:17.387Z" agent="Mozilla/5.0 (Windows NT 10.0; Win64; x64) AppleWebKit/537.36 (KHTML, like Gecko) Chrome/125.0.0.0 Safari/537.36" version="24.4.9" etag="zYRnTns83QKo_qmhooPw" type="github">
  <diagram name="Page-1" id="okTLoViYhg8rLxMZZsJ8">
    <mxGraphModel>
      <root>
        <mxCell id="0" />
        <mxCell id="1" parent="0" />
      </root>
    </mxGraphModel>
  </diagram>
</mxfile>
